<?xml version="1.0" encoding="utf-8"?>
<!-- Generator: Adobe Illustrator 25.4.1, SVG Export Plug-In . SVG Version: 6.00 Build 0)  -->
<svg version="1.1" id="Layer_1" xmlns="http://www.w3.org/2000/svg" xmlns:xlink="http://www.w3.org/1999/xlink" x="0px" y="0px"
	 viewBox="0 0 210 50" style="enable-background:new 0 0 210 50;" xml:space="preserve">
<g>
	<path d="M24.98,25.2c-0.09-0.4-0.25-0.77-0.47-1.09c-0.04-0.06-0.09-0.13-0.14-0.19c-0.15-0.18-0.32-0.35-0.51-0.49
		c-0.06-0.05-0.13-0.09-0.2-0.13c-0.14-0.08-0.28-0.15-0.43-0.21c-0.08-0.03-0.15-0.05-0.23-0.08c-0.16-0.04-0.33-0.07-0.5-0.09
		c-0.09-0.01-0.18-0.01-0.27-0.01c-1.08,0-1.89,0.48-2.43,1.25c-0.54,0.78-0.81,1.85-0.81,3.04c0,1.27,0.32,2.3,0.88,3.02
		c0.14,0.18,0.3,0.34,0.46,0.48c0.25,0.21,0.54,0.37,0.85,0.48c0.31,0.11,0.65,0.16,1.02,0.16c1.36,0,2.47-0.93,2.75-2.25
		c0.04-0.22,0.07-0.46,0.08-0.72c0-0.09,0.01-0.17,0.01-0.26v-2.28c0-0.11-0.01-0.21-0.01-0.32C25.02,25.41,25.01,25.3,24.98,25.2z"
		/>
	<path d="M25.16,1.25c-13.25,0-24,10.74-24,24c0,13.25,10.74,24,24,24s24-10.74,24-24C49.15,11.99,38.41,1.25,25.16,1.25z M11,35.05
		c-1.3,0-2.36-1.06-2.36-2.36V20.99h4.71l0,11.71C13.36,34,12.31,35.05,11,35.05z M10.98,19.31c-1.43,0-2.59-1.16-2.59-2.59
		c0-1.43,1.16-2.59,2.59-2.59c1.43,0,2.59,1.16,2.59,2.59C13.56,18.15,12.41,19.31,10.98,19.31z M29.81,15.15v3.72v13.79
		c0,0.33-0.07,0.64-0.19,0.93c-0.06,0.14-0.13,0.28-0.22,0.4c-0.43,0.63-1.15,1.05-1.97,1.05c-1.18,0-2.16-0.86-2.34-1.99
		c-0.25,0.33-0.54,0.62-0.86,0.88c-0.97,0.75-2.23,1.1-3.53,1.1c-1.12,0-2.13-0.26-2.98-0.81c-0.17-0.11-0.34-0.23-0.5-0.36
		c-0.16-0.13-0.31-0.27-0.46-0.42c-0.07-0.08-0.14-0.15-0.21-0.23c-0.21-0.24-0.4-0.5-0.58-0.78c-0.12-0.19-0.23-0.38-0.33-0.59
		c-0.62-1.23-0.96-2.76-0.96-4.52c-0.03-5.07,2.72-8.03,6.34-8.03c0.12,0,0.23,0,0.35,0.01c0.23,0.01,0.45,0.03,0.66,0.06
		c0.21,0.03,0.42,0.07,0.61,0.12c0.69,0.17,1.27,0.45,1.72,0.81c0.26,0.21,0.47,0.44,0.64,0.7h0.06v-1.86v-0.26v-3.72v-2.67h4.76
		V15.15z M43.08,21.89l-2.58,2.77c-0.16,0-1.3-1.23-3.21-1.52c-1.28-0.2-1.87,0.98-0.78,1.5c1.86,0.89,4.24,1.68,5.6,3.24
		c1.46,1.68,0.9,4.35-0.73,5.75c-1.07,0.92-2.51,1.39-4.28,1.39c-0.54,0-1.09-0.04-1.62-0.14c-1.67-0.32-3.86-1.52-4.38-3.05
		c-0.11-0.31-0.1-0.95,0-1.26c0.37-1.24,1.98-1.72,3.06-0.91c0.32,0.23,0.64,0.46,0.98,0.66c0.66,0.39,2.73,1.35,3.3,0.36
		c0.28-0.48-0.14-0.9-0.57-1.1c0,0-2.08-0.98-2.08-0.98c-3.03-1.45-4.21-2.48-4.21-4.78c0-1.27,0.52-2.36,1.55-3.25
		c1.01-0.88,2.31-1.32,3.86-1.32c1.05,0,2.34,0.22,3.27,0.66C41.19,20.32,42.46,21.21,43.08,21.89z"/>
	<path d="M65.54,25.81c-0.83-0.32-1.95-0.66-3.32-1c-1.31-0.32-2.36-0.63-3.13-0.92c-0.74-0.27-1.36-0.7-1.86-1.25
		c-0.48-0.54-0.72-1.27-0.72-2.19c0-1.17,0.47-2.14,1.4-2.89c0.95-0.77,2.36-1.15,4.19-1.15c0.86,0,1.74,0.14,2.63,0.41
		c0.89,0.27,1.7,0.68,2.41,1.2l0.21,0.15l0.58-0.85l-0.19-0.15c-0.73-0.54-1.6-0.98-2.6-1.3c-1-0.32-2.03-0.49-3.07-0.49
		c-1.44,0-2.68,0.23-3.67,0.68c-1,0.45-1.75,1.07-2.23,1.84c-0.48,0.76-0.72,1.61-0.72,2.53c0,1.16,0.31,2.11,0.92,2.82
		c0.6,0.69,1.33,1.21,2.18,1.54c0.82,0.32,1.95,0.66,3.35,1c1.28,0.3,2.32,0.6,3.08,0.89c0.73,0.27,1.35,0.69,1.85,1.24
		c0.48,0.53,0.72,1.26,0.72,2.17c0,1.16-0.48,2.13-1.41,2.86c-0.96,0.75-2.41,1.13-4.32,1.13c-1.25,0-2.44-0.24-3.55-0.7
		c-1.1-0.46-1.96-1.05-2.54-1.74l-0.17-0.2l-0.75,0.69l0.15,0.18c0.68,0.83,1.65,1.51,2.9,2.02c1.24,0.51,2.58,0.77,3.98,0.77
		c1.48,0,2.73-0.22,3.73-0.66c1.01-0.44,1.78-1.06,2.27-1.82c0.5-0.76,0.75-1.61,0.75-2.53c0-1.15-0.3-2.07-0.91-2.76
		C67.12,26.65,66.39,26.14,65.54,25.81z"/>
	<rect x="73.3" y="15.47" width="1.05" height="19.54"/>
	<path d="M84.54,17.58L84.54,17.58c1.38-0.77,2.93-1.17,4.62-1.17c2.48,0,4.51,0.75,6.05,2.22l0.19,0.18l0.65-0.76l-0.16-0.17
		c-0.82-0.82-1.82-1.45-2.97-1.87c-1.15-0.42-2.41-0.63-3.76-0.63c-1.9,0-3.64,0.43-5.17,1.28c-1.53,0.85-2.75,2.04-3.62,3.53
		c-0.87,1.49-1.31,3.19-1.31,5.04c0,1.85,0.44,3.54,1.31,5.04c0.87,1.49,2.09,2.68,3.62,3.53c1.53,0.85,3.27,1.28,5.17,1.28
		c1.33,0,2.59-0.22,3.74-0.64c1.16-0.43,2.17-1.06,2.99-1.88l0.07-0.07v-7.32h-1.02v6.89c-1.44,1.33-3.39,2.01-5.79,2.01
		c-1.69,0-3.25-0.39-4.62-1.17c-1.38-0.77-2.47-1.84-3.25-3.18c-0.78-1.34-1.18-2.85-1.18-4.48c0-1.64,0.4-3.14,1.18-4.48
		C82.07,19.42,83.17,18.35,84.54,17.58z"/>
	<polygon points="115.53,33.02 102.03,15.57 101.96,15.47 101.12,15.47 101.12,35.01 102.17,35.01 102.17,17.47 115.66,34.91 
		115.74,35.01 116.58,35.01 116.58,15.47 115.53,15.47 	"/>
	<path d="M129.73,15.47h-0.87l-8.91,19.18l-0.17,0.36h1.18l2.67-5.74h11.32l2.6,5.59l0.07,0.14h1.18l-9.01-19.4L129.73,15.47z
		 M134.48,28.25h-10.36l5.18-11.2L134.48,28.25z"/>
	<polygon points="136.89,16.49 143.96,16.49 143.96,35.01 145.01,35.01 145.01,16.49 152.08,16.49 152.08,15.47 136.89,15.47 	"/>
	<path d="M169.73,26.77c0,2.43-0.57,4.27-1.69,5.49c-1.11,1.21-2.75,1.82-4.86,1.82c-2.11,0-3.75-0.61-4.86-1.82
		c-1.12-1.21-1.69-3.06-1.69-5.49V15.47h-1.05v11.32c0,2.7,0.67,4.78,2,6.18c1.33,1.41,3.21,2.12,5.6,2.12
		c2.38,0,4.26-0.71,5.59-2.12c1.33-1.4,2-3.48,2-6.18V15.47h-1.05V26.77z"/>
	<path d="M188.69,25.96c0.85-1.07,1.28-2.4,1.28-3.98c0-2.04-0.7-3.66-2.08-4.8c-1.36-1.13-3.27-1.7-5.65-1.7h-6.7v19.54h1.05v-6.53
		h5.65c0.8,0,1.51-0.06,2.12-0.17l4.82,6.69h1.3l-5.03-6.96C186.83,27.64,187.91,26.94,188.69,25.96z M188.93,21.98
		c0,1.75-0.57,3.11-1.69,4.05c-1.14,0.95-2.8,1.44-4.94,1.44h-5.7V16.49h5.7c2.14,0,3.8,0.48,4.94,1.44
		C188.36,18.87,188.93,20.23,188.93,21.98z"/>
	<polygon points="196.06,33.99 196.06,25.6 206.56,25.6 206.56,24.58 196.06,24.58 196.06,16.49 207.79,16.49 207.79,15.47 
		195.02,15.47 195.02,35.01 208.19,35.01 208.19,33.99 	"/>
</g>
</svg>
