<?xml version="1.0" encoding="utf-8"?>
<!-- Generator: Adobe Illustrator 25.4.1, SVG Export Plug-In . SVG Version: 6.00 Build 0)  -->
<svg version="1.1" id="Layer_1" xmlns="http://www.w3.org/2000/svg" xmlns:xlink="http://www.w3.org/1999/xlink" x="0px" y="0px"
	 viewBox="0 0 210 50" style="enable-background:new 0 0 210 50;" xml:space="preserve">
<style type="text/css">
	.st0{fill:#FFFFFF;}
</style>
<g>
	<path class="st0" d="M25,25.2c-0.1-0.4-0.2-0.8-0.5-1.1c0-0.1-0.1-0.1-0.1-0.2c-0.1-0.2-0.3-0.4-0.5-0.5c-0.1,0-0.1-0.1-0.2-0.1
		c-0.1-0.1-0.3-0.1-0.4-0.2c-0.1,0-0.1,0-0.2-0.1c-0.2,0-0.3-0.1-0.5-0.1c-0.1,0-0.2,0-0.3,0c-1.1,0-1.9,0.5-2.4,1.2
		c-0.5,0.8-0.8,1.9-0.8,3c0,1.3,0.3,2.3,0.9,3c0.1,0.2,0.3,0.3,0.5,0.5c0.2,0.2,0.5,0.4,0.9,0.5c0.3,0.1,0.6,0.2,1,0.2
		c1.4,0,2.5-0.9,2.8-2.2c0-0.2,0.1-0.5,0.1-0.7c0-0.1,0-0.2,0-0.3v-2.3c0-0.1,0-0.2,0-0.3C25,25.4,25,25.3,25,25.2z"/>
	<path class="st0" d="M25.2,1.2c-13.2,0-24,10.7-24,24c0,13.2,10.7,24,24,24s24-10.7,24-24C49.2,12,38.4,1.2,25.2,1.2z M11,35
		c-1.3,0-2.4-1.1-2.4-2.4V21h4.7v11.7C13.4,34,12.3,35,11,35z M11,19.3c-1.4,0-2.6-1.2-2.6-2.6s1.2-2.6,2.6-2.6s2.6,1.2,2.6,2.6
		C13.6,18.1,12.4,19.3,11,19.3z M29.8,15.1v3.7v13.8c0,0.3-0.1,0.6-0.2,0.9c-0.1,0.1-0.1,0.3-0.2,0.4c-0.4,0.6-1.1,1-2,1
		c-1.2,0-2.2-0.9-2.3-2c-0.2,0.3-0.5,0.6-0.9,0.9c-1,0.8-2.2,1.1-3.5,1.1c-1.1,0-2.1-0.3-3-0.8c-0.2-0.1-0.3-0.2-0.5-0.4
		s-0.3-0.3-0.5-0.4c-0.1-0.1-0.1-0.2-0.2-0.2c-0.2-0.2-0.4-0.5-0.6-0.8c-0.1-0.2-0.2-0.4-0.3-0.6c-0.6-1.2-1-2.8-1-4.5
		c0-5.1,2.7-8,6.3-8c0.1,0,0.2,0,0.4,0c0.2,0,0.5,0,0.7,0.1c0.2,0,0.4,0.1,0.6,0.1c0.7,0.2,1.3,0.5,1.7,0.8c0.3,0.2,0.5,0.4,0.6,0.7
		h0.1v-1.9v-0.3v-3.7v-2.7h4.8L29.8,15.1L29.8,15.1z M43.1,21.9l-2.6,2.8c-0.2,0-1.3-1.2-3.2-1.5c-1.3-0.2-1.9,1-0.8,1.5
		c1.9,0.9,4.2,1.7,5.6,3.2c1.5,1.7,0.9,4.4-0.7,5.7c-1.1,0.9-2.5,1.4-4.3,1.4c-0.5,0-1.1,0-1.6-0.1c-1.7-0.3-3.9-1.5-4.4-3
		c-0.1-0.3-0.1-1,0-1.3c0.4-1.2,2-1.7,3.1-0.9c0.3,0.2,0.6,0.5,1,0.7c0.7,0.4,2.7,1.4,3.3,0.4c0.3-0.5-0.1-0.9-0.6-1.1l-2.1-1
		c-3-1.5-4.2-2.5-4.2-4.8c0-1.3,0.5-2.4,1.5-3.2c1-0.9,2.3-1.3,3.9-1.3c1,0,2.3,0.2,3.3,0.7C41.2,20.3,42.5,21.2,43.1,21.9z"/>
	<g>
		<path class="st0" d="M65.6,25.6L65.6,25.6c-0.9-0.3-2-0.7-3.4-1c-1.3-0.3-2.3-0.6-3.1-0.9c-0.7-0.2-1.3-0.6-1.8-1.2
			c-0.4-0.5-0.7-1.2-0.7-2c0-1.1,0.4-2,1.3-2.7c0.9-0.7,2.3-1.1,4-1.1c0.8,0,1.7,0.1,2.6,0.4c0.8,0.3,1.6,0.6,2.3,1.2l0.4,0.3
			l0.9-1.3L67.9,17c-0.8-0.6-1.7-1-2.7-1.3c-1-0.3-2.1-0.5-3.1-0.5c-1.5,0-2.7,0.2-3.8,0.7c-1,0.5-1.8,1.1-2.3,1.9
			c-0.5,0.8-0.8,1.7-0.8,2.7c0,1.2,0.3,2.2,1,3c0.6,0.7,1.4,1.3,2.3,1.6c0.9,0.3,2,0.7,3.4,1c1.3,0.3,2.3,0.6,3.1,0.9
			c0.7,0.3,1.3,0.6,1.8,1.2c0.4,0.5,0.7,1.2,0.7,2c0,1.1-0.4,2-1.3,2.7c-0.9,0.7-2.3,1.1-4.2,1.1c-1.2,0-2.4-0.2-3.5-0.7
			c-1.1-0.4-1.9-1-2.4-1.7l-0.3-0.4l-1.1,1l0.3,0.4c0.7,0.9,1.7,1.6,3,2.1c1.3,0.5,2.6,0.8,4.1,0.8c1.5,0,2.8-0.2,3.8-0.7
			c1.1-0.5,1.9-1.1,2.4-1.9c0.5-0.8,0.8-1.7,0.8-2.7c0-1.2-0.3-2.2-1-2.9C67.3,26.5,66.5,25.9,65.6,25.6z"/>
		<rect x="73" y="15.2" class="st0" width="1.6" height="20"/>
		<path class="st0" d="M84.7,17.8c1.4-0.8,2.9-1.1,4.5-1.1c2.4,0,4.4,0.7,5.9,2.2l0.4,0.4l1-1.1l-0.3-0.3c-0.8-0.8-1.9-1.5-3.1-1.9
			c-1.2-0.4-2.5-0.6-3.8-0.6c-1.9,0-3.7,0.4-5.3,1.3c-1.6,0.9-2.8,2.1-3.7,3.6c-0.9,1.5-1.3,3.3-1.3,5.2c0,1.9,0.5,3.6,1.3,5.2
			c0.9,1.5,2.1,2.8,3.7,3.6c1.6,0.9,3.3,1.3,5.3,1.3c1.3,0,2.6-0.2,3.8-0.7c1.2-0.4,2.2-1.1,3.1-1.9l0.1-0.1v-7.7h-1.5v7
			c-1.4,1.2-3.3,1.9-5.5,1.9c-1.7,0-3.2-0.4-4.5-1.1c-1.3-0.7-2.4-1.8-3.2-3.1c-0.8-1.3-1.1-2.8-1.1-4.4s0.4-3,1.1-4.4
			C82.3,19.6,83.3,18.5,84.7,17.8z"/>
		<polygon class="st0" points="115.3,32.3 102.2,15.4 102.1,15.2 100.9,15.2 100.9,35.3 102.4,35.3 102.4,18.2 115.5,35.1 
			115.6,35.3 116.8,35.3 116.8,15.2 115.3,15.2 		"/>
		<path class="st0" d="M129.9,15.2h-1.2l-9,19.3l-0.3,0.7h1.7l2.7-5.7h11l2.5,5.5l0.1,0.3h1.7L130,15.5L129.9,15.2z M134.1,28h-9.6
			l4.8-10.4L134.1,28z"/>
		<polygon class="st0" points="136.6,16.7 143.7,16.7 143.7,35.3 145.3,35.3 145.3,16.7 152.3,16.7 152.3,15.2 136.6,15.2 		"/>
		<path class="st0" d="M169.5,27L169.5,27c0,2.2-0.6,3.9-1.6,5.1c-1.1,1.2-2.6,1.7-4.7,1.7s-3.6-0.6-4.7-1.7c-1.1-1.2-1.6-3-1.6-5.3
			V15.2h-1.5v11.6c0,2.8,0.7,4.9,2.1,6.4c1.4,1.5,3.3,2.2,5.8,2.2c2.5,0,4.4-0.7,5.8-2.2c1.4-1.4,2.1-3.6,2.1-6.4V15.2h-1.5V27z"/>
		<path class="st0" d="M188.9,26.1c0.9-1.1,1.3-2.5,1.3-4.1c0-2.1-0.7-3.8-2.2-5c-1.4-1.2-3.4-1.8-5.8-1.8h-7v20h1.5v-6.5h5.4
			c0.7,0,1.4,0,2-0.1l4.7,6.6l0.1,0.1h1.9l-5.1-7.1C187.1,27.7,188.1,27.1,188.9,26.1z M188.7,22c0,1.7-0.5,3-1.6,3.9
			c-1.1,0.9-2.7,1.4-4.8,1.4h-5.5V16.7h5.5c2.1,0,3.7,0.5,4.8,1.4C188.1,19,188.7,20.3,188.7,22z"/>
		<polygon class="st0" points="196.3,33.7 196.3,25.9 206.8,25.9 206.8,24.3 196.3,24.3 196.3,16.7 208,16.7 208,15.2 194.8,15.2 
			194.8,35.3 208.4,35.3 208.4,33.7 		"/>
	</g>
</g>
</svg>
